<?xml version="1.0" encoding="UTF-8"?>
<svg version="1.1" xmlns="http://www.w3.org/2000/svg" width="786" height="782">
<path d="M0 0 C259.38 0 518.76 0 786 0 C786 258.06 786 516.12 786 782 C526.62 782 267.24 782 0 782 C0 523.94 0 265.88 0 0 Z " fill="#000000" transform="translate(0,0)"/>
<path d="M0 0 C121.81818182 0 121.81818182 0 152 18 C152.9384375 18.51046875 153.876875 19.0209375 154.84375 19.546875 C168.59605259 27.1468317 182.19155969 37.71126444 192 50 C192.81855469 50.81597656 193.63710938 51.63195312 194.48046875 52.47265625 C200.94776066 58.96000178 205.99798452 66.65900169 210.5625 74.5625 C210.90901611 75.15796631 211.25553223 75.75343262 211.61254883 76.36694336 C213.16828718 79.13876181 214 80.7668434 214 84 C214.66 84 215.32 84 216 84 C221.92856201 95.22443164 225.27459288 106.63164922 228 119 C228.256604 120.12164551 228.51320801 121.24329102 228.77758789 122.39892578 C231.05949292 133.23440814 231.51506565 143.69826312 231.4375 154.75 C231.43443344 156.06679245 231.43443344 156.06679245 231.43130493 157.41018677 C231.37207621 173.01793232 229.8237797 187.1447096 224.64648438 201.91796875 C223.71114693 204.93026397 223.33319491 207.86796784 223 211 C222.34 211 221.68 211 221 211 C221 212.32 221 213.64 221 215 C220.34 215 219.68 215 219 215 C218.89945313 215.52464844 218.79890625 216.04929687 218.6953125 216.58984375 C215.05888549 231.55897137 204.67896398 244.38821679 195 256 C194.56921143 256.53085205 194.13842285 257.0617041 193.69458008 257.60864258 C191.39824745 260.4228141 189.09393782 262.97754027 186.3125 265.3125 C184.08821976 267.19776355 181.90661349 269.08843669 179.7890625 271.09375 C162.9825231 286.95108286 141.87653117 297.66534001 119.6875 303.625 C118.96594727 303.81924561 118.24439453 304.01349121 117.50097656 304.21362305 C77.71519376 314.43768433 45.79733139 309 0 309 C0 207.03 0 105.06 0 0 Z " fill="#FAFAFA" transform="translate(402,237)"/>
<path d="M0 0 C30.36 0 60.72 0 92 0 C92 101.97 92 203.94 92 309 C76.82 309 61.64 309 46 309 C46 278.97 46 248.94 46 218 C-2.51 218.495 -2.51 218.495 -52 219 C-62.95509431 242.30251476 -62.95509431 242.30251476 -73 266 C-74.31760401 268.77101893 -75.63377836 271.48108983 -77.0625 274.1875 C-79.95112107 279.79950178 -82.49265775 285.45241954 -84.83984375 291.31640625 C-86.29098186 294.67307925 -88.06011071 297.76157108 -89.984375 300.8671875 C-91.37113781 303.52695734 -91.37113781 303.52695734 -92 309 C-108.83 309 -125.66 309 -143 309 C-142.16716374 304.00298247 -141.51871544 301.62007065 -139.25 297.375 C-137.13984756 293.3054203 -135.21790122 289.25013224 -133.5 285 C-130.98289122 278.82747209 -128.03535752 272.9310739 -125 267 C-123.76551692 264.56515775 -122.53829644 262.12672425 -121.3125 259.6875 C-120.75175781 258.57761719 -120.19101563 257.46773438 -119.61328125 256.32421875 C-117.06941444 251.08249803 -114.87766093 245.70887589 -112.6875 240.3125 C-110.08307503 234.05096333 -107.09401109 228.03136338 -104 222 C-100.69804632 215.55996132 -97.60034972 209.17240587 -94.98828125 202.421875 C-93.24738831 198.15565514 -91.10731731 194.0942165 -89 190 C-87.91233486 187.87721394 -86.82907249 185.75216682 -85.75 183.625 C-85.24984375 182.64789063 -84.7496875 181.67078125 -84.234375 180.6640625 C-83.18985578 178.40975202 -82.48263043 176.42464337 -82 174 C-81.34 174 -80.68 174 -80 174 C-79.9175 173.34 -79.835 172.68 -79.75 172 C-78.91283548 168.65134193 -77.55833775 165.95600371 -75.9765625 162.90625 C-74.82175381 160.65206344 -73.88922236 158.37125962 -73 156 C-72.74089844 155.31292969 -72.48179687 154.62585938 -72.21484375 153.91796875 C-71.47263054 151.94678854 -70.73589863 149.97354632 -70 148 C-69.34 148 -68.68 148 -68 148 C-67.7525 147.01 -67.505 146.02 -67.25 145 C-66.24739343 141.47675577 -64.76686671 138.41854286 -63.078125 135.1796875 C-61.12425415 131.22947035 -59.59388373 127.10525516 -58 123 C-57.33493736 121.33269262 -56.66870677 119.66584917 -56 118 C-55.34 118 -54.68 118 -54 118 C-53.896875 117.113125 -53.79375 116.22625 -53.6875 115.3125 C-52.96353911 111.82432483 -51.84972246 110.01436253 -50 107 C-49.41536094 105.59232537 -48.8561275 104.17401539 -48.3125 102.75 C-46.38539969 97.79780036 -44.19581117 92.99495376 -41.9375 88.1875 C-41.5969458 87.45821289 -41.2563916 86.72892578 -40.90551758 85.97753906 C-39.49782443 82.99976617 -38.07620833 80.12689146 -36.37890625 77.30078125 C-34.95327928 74.9220439 -33.97264662 72.59372431 -33 70 C-31.60464067 66.40589264 -29.98333735 63.30556226 -28 60 C-26.94461635 57.52325289 -25.96086633 55.02445658 -24.984375 52.515625 C-23.72985297 49.30962426 -22.37259039 46.15695791 -21 43 C-20.34 43 -19.68 43 -19 43 C-18.84144531 42.40574219 -18.68289063 41.81148438 -18.51953125 41.19921875 C-16.6187527 34.44672922 -14.0214719 28.31890962 -11 22 C-10.16220761 20.22291676 -9.32502449 18.44554622 -8.48828125 16.66796875 C-7.57607802 14.73671589 -6.66331168 12.80572891 -5.75 10.875 C-5.07698853 9.45030396 -5.07698853 9.45030396 -4.39038086 7.99682617 C-3.75628296 6.66421753 -3.75628296 6.66421753 -3.109375 5.3046875 C-2.72749023 4.50015137 -2.34560547 3.69561523 -1.95214844 2.86669922 C-1 1 -1 1 0 0 Z " fill="#FBFBFA" transform="translate(295,237)"/>
<path d="M0 0 C73.81176471 0 73.81176471 0 102 24 C103.42119141 25.20269531 103.42119141 25.20269531 104.87109375 26.4296875 C112.30316978 32.88442406 118.43947837 39.88470894 124 48 C124.69867187 49.00933594 125.39734375 50.01867187 126.1171875 51.05859375 C134.78539263 64.83665521 141.14134997 83.19224304 141.16796875 99.5390625 C141.17129715 100.26056488 141.17462555 100.98206726 141.17805481 101.72543335 C141.18310268 103.25005459 141.1854638 104.77468681 141.18530273 106.29931641 C141.18747343 108.59687268 141.20560774 110.89393577 141.22460938 113.19140625 C141.26696006 123.86638497 140.63544578 133.75161598 136.5625 143.75 C136.12292969 144.84054687 135.68335938 145.93109375 135.23046875 147.0546875 C134.82441406 148.02664063 134.41835938 148.99859375 134 150 C133.70738281 150.70382812 133.41476562 151.40765625 133.11328125 152.1328125 C132.42316269 153.76134624 131.71233359 155.38106003 131 157 C130.43624608 158.3119619 129.87373954 159.62446052 129.3125 160.9375 C128.879375 161.948125 128.44625 162.95875 128 164 C127.34 164 126.68 164 126 164 C125.74347656 164.71800781 125.48695313 165.43601562 125.22265625 166.17578125 C121.29343583 175.25190381 113.73148367 182.90157455 107 190 C106.29359375 190.75410156 105.5871875 191.50820313 104.859375 192.28515625 C103 194 103 194 101 194 C101 194.66 101 195.32 101 196 C70.83607626 219.74606763 38.48383519 218 0 218 C0 146.06 0 74.12 0 0 Z " fill="#010101" transform="translate(448,282)"/>
<path d="M0 0 C6.27 0 12.54 0 19 0 C19 42.9 19 85.8 19 130 C-6.74 130 -32.48 130 -59 130 C-58.27451885 126.37259424 -57.73505616 124.07639156 -56.25 120.875 C-55.899375 120.11058594 -55.54875 119.34617187 -55.1875 118.55859375 C-54.795625 117.71425781 -54.40375 116.86992187 -54 116 C-53.0823527 113.97961178 -52.16568792 111.95877702 -51.25 109.9375 C-50.50037868 108.29149416 -49.75051581 106.64559818 -49 105 C-48.34 105 -47.68 105 -47 105 C-46.88011719 104.46246094 -46.76023437 103.92492187 -46.63671875 103.37109375 C-43.99423767 93.53068876 -39.36668389 84.16853559 -35 75 C-34.34 75 -33.68 75 -33 75 C-32.91492188 74.18660156 -32.82984375 73.37320313 -32.7421875 72.53515625 C-31.81727792 68.12966591 -30.08825668 64.46604641 -28.125 60.4375 C-27.77308594 59.69564453 -27.42117188 58.95378906 -27.05859375 58.18945312 C-25.21016717 54.33112032 -23.21184442 50.66459431 -21 47 C-20.33196316 45.16289868 -19.66528043 43.32528521 -19.0078125 41.484375 C-17.72669055 38.32626042 -16.18130468 35.34426236 -14.625 32.3125 C-11.76216353 26.73120319 -9.43909863 21.08933229 -7.265625 15.19921875 C-5.18945857 9.95113139 -2.59492838 5.00881524 0 0 Z " fill="#060606" transform="translate(323,281)"/>
<path d="M0 0 C0.66 0.33 1.32 0.66 2 1 C-2.39453125 5.00390625 -2.39453125 5.00390625 -4 6 C-4.99 5.67 -5.98 5.34 -7 5 C-4.69 3.35 -2.38 1.7 0 0 Z " fill="#CBCBCB" transform="translate(547,478)"/>
<path d="M0 0 C2.97 1.98 2.97 1.98 6 4 C2.94736336 4.98120464 1.05263664 4.98120464 -2 4 C-2 3.34 -2 2.68 -2 2 C-1.34 2 -0.68 2 0 2 C0 1.34 0 0.68 0 0 Z " fill="#E4E4E2" transform="translate(578,272)"/>
</svg>
